<svg id="Слой_1" data-name="Слой 1" xmlns="http://www.w3.org/2000/svg" viewBox="0 0 344 96.45"><defs><style>.cls-1{fill:none;stroke:#020202;stroke-miterlimit:10;}.cls-2{font-size:22px;letter-spacing:0.02em;}.cls-11,.cls-2{font-family:ArialMT, Arial;}.cls-3{letter-spacing:0.01em;}.cls-4{letter-spacing:0.03em;}.cls-5{letter-spacing:0.02em;}.cls-6{letter-spacing:0em;}.cls-7{letter-spacing:0em;}.cls-8{letter-spacing:0.02em;}.cls-9{letter-spacing:-0.01em;}.cls-10{letter-spacing:-0.08em;}.cls-11{font-size:25px;letter-spacing:0.02em;}.cls-12{fill:#847c7a;}.cls-13{letter-spacing:0.01em;}.cls-14{letter-spacing:0.02em;}.cls-15{letter-spacing:0.03em;}</style></defs><title>bel</title><rect class="cls-1" x="1.51" y="29.95" width="341.99" height="66" rx="8" ry="8"/><text class="cls-2" transform="translate(9 55.45) scale(1.03 1)">З<tspan class="cls-3" x="13.73" y="0">в</tspan><tspan x="25.61" y="0">есткi пра аб’е</tspan><tspan class="cls-4" x="170.16" y="0">к</tspan><tspan class="cls-5" x="180.47" y="0">ты i з’явы</tspan><tspan x="0" y="26.4">на</tspan><tspan class="cls-3" x="25.26" y="26.4">в</tspan><tspan x="37.15" y="26.4">а</tspan><tspan class="cls-4" x="49.82" y="26.4">к</tspan><tspan class="cls-6" x="60.13" y="26.4">о</tspan><tspan x="72.32" y="26.4">льна</tspan><tspan class="cls-7" x="122.77" y="26.4">г</tspan><tspan class="cls-8" x="130.75" y="26.4">а с</tspan><tspan class="cls-3" x="161.42" y="26.4">в</tspan><tspan class="cls-9" x="173.3" y="26.4">е</tspan><tspan class="cls-4" x="185.24" y="26.4">т</tspan><tspan class="cls-10" x="196.01" y="26.4">у</tspan><tspan x="205.24" y="26.4">.</tspan></text><text class="cls-11" transform="translate(0 21.45) scale(1.03 1)"><tspan class="cls-12">iнфармацыя </tspan><tspan class="cls-13" x="157.1" y="0">т</tspan><tspan class="cls-14" x="168.77" y="0">а</tspan><tspan class="cls-15" x="183.17" y="0">к</tspan><tspan x="194.89" y="0">сама м</tspan><tspan class="cls-13" x="279.52" y="0">о</tspan><tspan x="293.64" y="0">жа</tspan></text></svg>