<svg id="Слой_1" data-name="Слой 1" xmlns="http://www.w3.org/2000/svg" viewBox="0 0 345.26 96.45"><defs><style>.cls-1{fill:none;stroke:#020202;stroke-miterlimit:10;}.cls-2{font-size:22px;}.cls-12,.cls-2{font-family:ArialMT, Arial;}.cls-2,.cls-9{letter-spacing:0.02em;}.cls-3{letter-spacing:0.01em;}.cls-4{letter-spacing:0em;}.cls-5{letter-spacing:-0.01em;}.cls-6{letter-spacing:0.03em;}.cls-7{letter-spacing:0.02em;}.cls-8{letter-spacing:0.03em;}.cls-10{letter-spacing:0.01em;}.cls-11{letter-spacing:0em;}.cls-12{font-size:25px;letter-spacing:0.02em;}.cls-13{fill:#847c7a;}.cls-14{letter-spacing:0.01em;}.cls-15{letter-spacing:0.02em;}.cls-16{letter-spacing:-0.01em;}</style></defs><title>rus</title><rect class="cls-1" x="1.51" y="29.95" width="341.99" height="66" rx="8" ry="8"/><text class="cls-2" transform="translate(9 55.45) scale(1.03 1)">С<tspan class="cls-3" x="16.33" y="0">в</tspan><tspan class="cls-4" x="28.21" y="0">е</tspan><tspan x="40.4" y="0">дения об о</tspan><tspan class="cls-5" x="155.52" y="0">б</tspan><tspan x="167.83" y="0">ъе</tspan><tspan class="cls-6" x="194.7" y="0">к</tspan><tspan class="cls-3" x="205.01" y="0">т</tspan><tspan class="cls-7" x="215.28" y="0">ах и</tspan><tspan class="cls-8"><tspan x="0" y="26.4">с</tspan><tspan class="cls-9" x="11.69" y="26.4">обытиях ок</tspan><tspan class="cls-10" x="129.99" y="26.4">р</tspan><tspan class="cls-6" x="142.41" y="26.4">у</tspan><tspan class="cls-7" x="154.1" y="26.4">жаю</tspan><tspan class="cls-10" x="198.87" y="26.4">щ</tspan><tspan class="cls-9" x="217.17" y="26.4">е</tspan><tspan class="cls-11" x="229.84" y="26.4">г</tspan><tspan class="cls-9" x="237.82" y="26.4">о мира.</tspan></tspan></text><text class="cls-12" transform="translate(0 21.45) scale(1.03 1)"><tspan class="cls-13">информация</tspan><tspan x="154.06" y="0"> </tspan><tspan class="cls-14" x="161.51" y="0">т</tspan><tspan x="173.18" y="0">акже м</tspan><tspan class="cls-14" x="255.78" y="0">о</tspan><tspan class="cls-15" x="269.9" y="0">ж</tspan><tspan class="cls-16" x="287.12" y="0">е</tspan><tspan x="300.7" y="0">т б</tspan></text></svg>